<svg xmlns="http://www.w3.org/2000/svg" id="Livello_1" x="0" y="0" width="620.734" height="185.944" viewBox="-370.734 -111.055 620.734 185.944" xml:space="preserve"><path fill="#0E8639" d="M-362.99-17.903c-.383-47.794 38.564-86.621 86.991-86.72s87.995 38.566 88.38 86.361c.383 47.797-38.564 86.621-86.991 86.72-48.427.101-87.997-38.565-88.38-86.361"/><path fill="#FFF" d="M-354.098-17.922c-.347-42.947 34.652-77.836 78.17-77.928 43.518-.089 79.074 34.655 79.418 77.604s-34.652 77.839-78.17 77.928c-43.518.092-79.074-34.651-79.418-77.604"/><path fill="#E5332A" d="M-275.574-90.457c40.435-.083 73.469 32.195 73.787 72.101.318 39.903-32.203 72.319-72.637 72.403-40.435.083-73.469-32.195-73.787-72.098-.316-39.904 32.202-72.32 72.637-72.406"/><path fill="#FFF" d="M-308.66-21.729a33.2 33.2 0 00.042-1.574c-.034-4.271-1.032-7.471-2.992-9.603-1.96-2.132-4.574-3.192-7.839-3.187-3.265.008-6.189 1.225-8.774 3.656-2.551 2.431-4.263 6.02-5.142 10.763l24.705-.055m13.39 9.475l-39.614.081a23.238 23.238 0 00-.044 1.412c.031 3.839 1.157 6.932 3.375 9.277 2.257 2.348 4.977 3.521 8.17 3.513 5.243-.01 9.314-2.697 12.204-8.06l14.158 2.306c-2.708 5.616-6.359 9.84-10.958 12.676-4.563 2.796-9.705 4.198-15.428 4.211-7.849.016-14.252-2.413-19.204-7.289-4.954-4.912-7.464-11.404-7.529-19.477-.063-7.891 2.1-14.919 6.489-21.083 5.986-8.339 14.591-12.519 25.815-12.543 7.154-.016 12.855 2.163 17.108 6.533 4.253 4.336 6.408 10.432 6.473 18.286.035 3.767-.306 7.15-1.015 10.157zm84.925-24.738c-2.39-1.259-4.878-2.854-7.497-4.894-4.42-3.445-7.451-7.461-9.095-12.055h-11.717v75.666h14.44v-54.437c3.362 3.145 7.12 5.751 11.248 7.849.802-3.616 1.834-8.34 2.621-12.129zm-39.471-11.993c-4.237-3.998-10.166-6.022-17.622-6.022-6.812 0-12.561 1.756-17.088 5.217-4.172 3.195-6.815 8.417-7.855 15.529h13.807c.521-2.916 1.517-5.136 2.96-6.609 1.934-1.973 4.561-2.971 7.802-2.971 3.276 0 5.892.954 7.774 2.835 1.882 1.882 2.835 4.587 2.835 8.037 0 3.091-1.063 6.254-3.161 9.402-1.553 2.275-5.606 6.452-12.394 12.777-8.235 7.641-14.497 13.848-17.273 18.445-2.648 4.383-4.3 9.074-4.918 13.953h46.288c.545-2.606 1.848-8.863 2.588-12.644h-27.944s4.824-7.109 13.22-13.669c4.959-3.875 7.886-7.555 9.653-9.809 2.669-3.396 4.641-6.679 5.864-9.765a26.36 26.36 0 001.837-9.744c.001-5.938-2.144-10.97-6.373-14.962z"/><path d="M-145.573 34.441c.042.915.182 1.704.427 2.371.24.667.563 1.222.969 1.663.404.44.886.769 1.452.985.56.216 1.188.323 1.884.323.662 0 1.233-.076 1.717-.229a8.21 8.21 0 001.264-.503c.354-.182.662-.352.915-.503.253-.154.482-.229.693-.229.274 0 .485.104.631.315l.962 1.246c-.399.472-.85.873-1.358 1.199a7.739 7.739 0 01-1.608.795 9.097 9.097 0 01-1.751.443c-.599.089-1.183.133-1.749.133-1.113 0-2.147-.185-3.099-.56-.951-.373-1.777-.923-2.476-1.647s-1.246-1.624-1.639-2.695c-.394-1.074-.592-2.309-.592-3.703 0-1.113.177-2.155.526-3.122a7.44 7.44 0 011.514-2.523 7.09 7.09 0 012.395-1.694c.941-.414 2.007-.623 3.192-.623a7.66 7.66 0 012.744.482c.842.321 1.566.79 2.176 1.41.61.62 1.087 1.379 1.428 2.278.341.899.511 1.921.511 3.067 0 .526-.057.878-.172 1.055-.117.18-.328.268-.633.268h-10.325v-.002zm8.089-2.082c0-.568-.083-1.095-.245-1.584a3.666 3.666 0 00-.717-1.277 3.237 3.237 0 00-1.173-.852c-.466-.203-1.006-.308-1.616-.308-1.23 0-2.197.352-2.9 1.055s-1.149 1.691-1.339 2.963h7.99v.003zm9.364-4.097c.347-.357.706-.68 1.079-.969.373-.289.769-.539 1.188-.751s.865-.373 1.339-.487a6.421 6.421 0 011.545-.175c.883 0 1.657.146 2.325.443.67.294 1.23.709 1.686 1.246.459.537.803 1.181 1.035 1.931.232.751.347 1.579.347 2.481v10.231h-3.375V31.981c0-1.081-.25-1.923-.748-2.523-.5-.599-1.261-.899-2.278-.899-.758 0-1.459.175-2.106.521a7.32 7.32 0 00-1.819 1.418v11.714h-3.39V26.133h2.048c.464 0 .756.216.883.646l.241 1.483zm19.451 14.203c-1.334 0-2.361-.375-3.08-1.128-.722-.751-1.081-1.811-1.081-3.177v-9.363h-1.764a.707.707 0 01-.487-.18c-.138-.12-.206-.3-.206-.542v-1.371l2.601-.378.743-4.652a.877.877 0 01.268-.433c.125-.109.294-.164.503-.164h1.733v5.28h4.461v2.444h-4.461v9.129c0 .579.143 1.019.427 1.324s.662.456 1.134.456c.263 0 .487-.034.678-.102.19-.068.352-.143.487-.222.138-.078.255-.151.354-.219a.53.53 0 01.292-.104c.19 0 .341.104.459.315l1.009 1.655a5.435 5.435 0 01-1.861 1.063 6.808 6.808 0 01-2.209.369zm9.569-13.353c.506-1.019 1.113-1.819 1.829-2.405.714-.581 1.571-.876 2.57-.876.349 0 .675.042.98.12.305.078.579.198.821.354l-.237 2.554c-.042.18-.107.302-.198.37a.564.564 0 01-.352.102c-.159 0-.386-.029-.678-.086a4.887 4.887 0 00-.93-.086c-.472 0-.891.068-1.254.203a3.052 3.052 0 00-.977.599 4.058 4.058 0 00-.766.962 8.912 8.912 0 00-.615 1.293v9.994h-3.39V26.13h1.97c.357 0 .605.068.74.198.138.13.232.36.284.685l.203 2.099zm7.803-.74c1.816-1.694 3.985-2.538 6.494-2.538.923 0 1.746.151 2.465.448a4.98 4.98 0 011.816 1.269c.487.547.86 1.196 1.118 1.949.255.751.386 1.584.386 2.499v10.216h-1.511c-.326 0-.573-.05-.74-.149-.169-.102-.313-.302-.427-.607l-.331-1.308c-.409.367-.816.696-1.214.985-.399.289-.81.534-1.238.732a6.004 6.004 0 01-1.371.448 8.174 8.174 0 01-1.616.149 5.962 5.962 0 01-1.822-.268 4.027 4.027 0 01-1.457-.81 3.84 3.84 0 01-.969-1.347c-.237-.537-.354-1.167-.354-1.892 0-.618.164-1.225.498-1.814.331-.586.878-1.115 1.639-1.584.764-.466 1.764-.852 3.013-1.157 1.246-.305 2.783-.48 4.61-.521v-1.074c0-1.157-.248-2.02-.74-2.585-.495-.568-1.22-.852-2.176-.852-.652 0-1.196.083-1.639.245a7.312 7.312 0 00-1.149.526c-.326.19-.615.367-.865.529a1.47 1.47 0 01-.805.242.974.974 0 01-.592-.18 1.55 1.55 0 01-.404-.448l-.619-1.103zm8.988 6.809c-1.209.044-2.228.141-3.059.292-.829.154-1.501.349-2.017.584s-.883.519-1.113.844a1.835 1.835 0 00-.339 1.074c0 .378.06.701.18.969s.289.487.503.662c.216.172.466.297.758.378.289.078.605.117.954.117.883 0 1.642-.164 2.278-.495.636-.334 1.251-.813 1.853-1.444v-2.981h.002zm18.27-6.919c.347-.357.706-.68 1.079-.969s.771-.539 1.188-.751c.42-.211.865-.373 1.339-.487a6.421 6.421 0 011.545-.175c.883 0 1.657.146 2.325.443.67.294 1.23.709 1.686 1.246.459.537.803 1.181 1.035 1.931.232.751.347 1.579.347 2.481v10.231h-3.375V31.981c0-1.081-.25-1.923-.748-2.523-.5-.599-1.261-.899-2.278-.899-.758 0-1.459.175-2.106.521a7.32 7.32 0 00-1.819 1.418v11.714h-3.39V26.133h2.048c.464 0 .756.216.883.646l.241 1.483zm16.979 6.179c.042.915.182 1.704.427 2.371.24.667.563 1.222.969 1.663.404.44.886.769 1.452.985.56.216 1.188.323 1.884.323.662 0 1.233-.076 1.717-.229a8.21 8.21 0 001.264-.503c.354-.182.662-.352.915-.503.253-.154.482-.229.693-.229.274 0 .485.104.631.315l.962 1.246c-.399.472-.85.873-1.358 1.199a7.739 7.739 0 01-1.608.795 9.097 9.097 0 01-1.751.443c-.599.089-1.183.133-1.749.133-1.113 0-2.147-.185-3.099-.56a6.907 6.907 0 01-2.476-1.647c-.698-.724-1.246-1.624-1.639-2.695-.394-1.074-.592-2.309-.592-3.703 0-1.113.177-2.155.526-3.122a7.44 7.44 0 011.514-2.523 7.09 7.09 0 012.395-1.694c.941-.414 2.007-.623 3.192-.623a7.66 7.66 0 012.744.482c.842.321 1.566.79 2.176 1.41.61.62 1.087 1.379 1.428 2.278.341.899.511 1.921.511 3.067 0 .526-.057.878-.172 1.055-.117.18-.328.268-.633.268H-47.06v-.002zm8.086-2.082c0-.568-.083-1.095-.245-1.584a3.666 3.666 0 00-.717-1.277 3.237 3.237 0 00-1.173-.852c-.466-.203-1.006-.308-1.616-.308-1.23 0-2.197.352-2.901 1.055-.704.704-1.149 1.691-1.34 2.963h7.99v.003zm10.291-11.084c0 .308-.06.597-.18.868a2.3 2.3 0 01-.495.717 2.471 2.471 0 01-.732.487c-.279.122-.576.18-.891.18-.305 0-.592-.06-.86-.18a2.3 2.3 0 01-.701-.487 2.462 2.462 0 01-.482-.717c-.12-.274-.18-.56-.18-.868 0-.313.063-.607.18-.883.122-.274.281-.511.482-.717.201-.203.433-.367.701-.487a2.05 2.05 0 01.86-.18c.315 0 .612.06.891.18.276.122.524.284.732.487.208.206.375.446.495.717.12.276.18.571.18.883zm-.565 4.858v16.079h-3.39V26.133h3.39zm15.292 2.129c.347-.357.706-.68 1.079-.969.373-.289.771-.539 1.188-.751s.865-.373 1.34-.487a6.421 6.421 0 011.545-.175c.883 0 1.657.146 2.325.443.67.294 1.23.709 1.686 1.246.459.537.803 1.181 1.035 1.931.232.751.347 1.579.347 2.481v10.231h-3.375V31.981c0-1.081-.25-1.923-.748-2.523-.5-.599-1.261-.899-2.278-.899-.758 0-1.459.175-2.106.521a7.32 7.32 0 00-1.819 1.418v11.714h-3.39V26.133h2.048c.464 0 .756.216.883.646l.24 1.483zM7.512 25.88c1.188 0 2.265.195 3.224.581.962.391 1.78.941 2.46 1.657.678.714 1.201 1.582 1.569 2.601.367 1.016.55 2.163.55 3.435s-.182 2.418-.55 3.437c-.37 1.016-.891 1.889-1.569 2.609a6.859 6.859 0 01-2.46 1.663c-.959.388-2.035.581-3.224.581-1.196 0-2.275-.195-3.239-.581A6.965 6.965 0 011.805 40.2c-.683-.719-1.207-1.59-1.574-2.609-.37-1.019-.552-2.166-.552-3.437s.182-2.418.552-3.435c.367-1.019.891-1.887 1.574-2.601a7.017 7.017 0 012.468-1.657c.964-.385 2.043-.581 3.239-.581zm0 13.922c1.452 0 2.53-.485 3.242-1.459.711-.972 1.063-2.361 1.063-4.17s-.352-3.203-1.063-4.185c-.711-.982-1.79-1.472-3.242-1.472-1.472 0-2.562.49-3.278 1.472-.714.982-1.074 2.376-1.074 4.185s.357 3.198 1.074 4.17c.716.971 1.808 1.459 3.278 1.459zm20.653-10.753a.844.844 0 01-.284.313.735.735 0 01-.394.094 1.26 1.26 0 01-.581-.164 24.663 24.663 0 00-.743-.37 6.622 6.622 0 00-.998-.37 4.972 4.972 0 00-1.347-.164c-.422 0-.803.047-1.144.149a2.564 2.564 0 00-.865.427 1.89 1.89 0 00-.545.646 1.727 1.727 0 00-.188.795c0 .378.115.693.347.946.232.253.537.469.915.654.378.185.808.352 1.293.498.485.146.98.305 1.483.472.503.169.998.362 1.48.584.485.219.915.49 1.293.81.378.321.683.711.915 1.167.232.456.347 1.011.347 1.663a5.29 5.29 0 01-.409 2.095 4.781 4.781 0 01-1.199 1.673c-.524.472-1.181.842-1.962 1.102-.784.263-1.681.394-2.689.394-.558 0-1.095-.05-1.616-.149a9.652 9.652 0 01-1.483-.409 8.04 8.04 0 01-1.308-.623 6.6 6.6 0 01-1.079-.79l.79-1.293c.094-.159.214-.279.354-.37a.97.97 0 01.526-.136c.219 0 .44.07.657.214.216.143.466.297.756.466.289.169.636.323 1.048.466.409.143.92.214 1.53.214.506 0 .941-.063 1.308-.18.37-.122.675-.287.915-.498.242-.211.422-.448.537-.717.117-.268.175-.555.175-.86 0-.409-.117-.748-.349-1.009-.229-.263-.539-.487-.923-.678a8.552 8.552 0 00-1.308-.503 57.062 57.062 0 01-1.491-.472 16.671 16.671 0 01-1.491-.584 5.147 5.147 0 01-1.308-.844c-.383-.341-.691-.756-.923-1.246s-.347-1.087-.347-1.79c0-.641.128-1.251.386-1.829a4.41 4.41 0 011.134-1.53c.5-.443 1.113-.79 1.845-1.05.732-.255 1.574-.386 2.53-.386 1.081 0 2.064.175 2.947.521.883.347 1.626.821 2.223 1.418l-.76 1.233zm9.316 13.416c-1.334 0-2.361-.375-3.08-1.128-.722-.751-1.081-1.811-1.081-3.177v-9.363h-1.764a.707.707 0 01-.487-.18c-.138-.12-.206-.3-.206-.542v-1.371l2.601-.378.743-4.652a.877.877 0 01.268-.433c.125-.109.294-.164.503-.164h1.733v5.28h4.462v2.444H36.71v9.129c0 .579.143 1.019.427 1.324.284.305.662.456 1.134.456.263 0 .487-.034.678-.102.19-.068.352-.143.487-.222.138-.078.255-.151.354-.219a.53.53 0 01.292-.104c.19 0 .341.104.459.315l1.009 1.655a5.435 5.435 0 01-1.861 1.063 6.793 6.793 0 01-2.208.369zm9.57-13.353c.506-1.019 1.113-1.819 1.829-2.405.714-.581 1.571-.876 2.57-.876.349 0 .675.042.98.12.305.078.579.198.821.354l-.237 2.554c-.042.18-.107.302-.198.37a.564.564 0 01-.352.102c-.159 0-.386-.029-.678-.086a4.887 4.887 0 00-.93-.086 3.58 3.58 0 00-1.253.203 3.052 3.052 0 00-.977.599 4.058 4.058 0 00-.766.962 8.912 8.912 0 00-.615 1.293v9.994h-3.39V26.13h1.97c.357 0 .605.068.74.198.138.13.232.36.284.685l.202 2.099zm12.532-7.837c0 .308-.06.597-.18.868a2.3 2.3 0 01-.495.717 2.471 2.471 0 01-.732.487c-.279.122-.576.18-.891.18-.305 0-.592-.06-.86-.18a2.3 2.3 0 01-.701-.487 2.462 2.462 0 01-.482-.717c-.12-.274-.18-.56-.18-.868 0-.313.063-.607.18-.883.122-.274.281-.511.482-.717.201-.203.433-.367.701-.487a2.05 2.05 0 01.86-.18c.315 0 .612.06.891.18.276.122.524.284.732.487.208.206.375.446.495.717.12.276.18.571.18.883zm-.566 4.858v16.079h-3.39V26.133h3.39zm21.722 2.916a.844.844 0 01-.284.313.735.735 0 01-.394.094 1.26 1.26 0 01-.581-.164 24.663 24.663 0 00-.743-.37 6.622 6.622 0 00-.998-.37 4.972 4.972 0 00-1.347-.164c-.422 0-.803.047-1.144.149a2.564 2.564 0 00-.865.427 1.89 1.89 0 00-.545.646 1.727 1.727 0 00-.188.795c0 .378.115.693.347.946.232.253.537.469.915.654.378.185.808.352 1.293.498.485.146.98.305 1.483.472.503.169.998.362 1.48.584.485.219.915.49 1.293.81.378.321.683.711.915 1.167.232.456.347 1.011.347 1.663a5.29 5.29 0 01-.409 2.095 4.781 4.781 0 01-1.199 1.673c-.524.472-1.181.842-1.962 1.102-.784.263-1.681.394-2.689.394-.558 0-1.095-.05-1.616-.149a9.652 9.652 0 01-1.483-.409 7.961 7.961 0 01-1.308-.623 6.6 6.6 0 01-1.079-.79l.79-1.293c.094-.159.214-.279.354-.37a.97.97 0 01.526-.136c.219 0 .44.07.657.214.216.143.466.297.756.466.289.169.636.323 1.048.466.409.143.92.214 1.53.214.506 0 .941-.063 1.308-.18.37-.122.675-.287.915-.498.242-.211.422-.448.537-.717.117-.268.175-.555.175-.86 0-.409-.117-.748-.349-1.009-.229-.263-.539-.487-.923-.678a8.552 8.552 0 00-1.308-.503 57.062 57.062 0 01-1.491-.472 16.671 16.671 0 01-1.491-.584 5.147 5.147 0 01-1.308-.844 3.855 3.855 0 01-.923-1.246c-.232-.49-.347-1.087-.347-1.79 0-.641.128-1.251.386-1.829a4.41 4.41 0 011.134-1.53c.5-.443 1.113-.79 1.845-1.05.732-.255 1.574-.386 2.53-.386 1.081 0 2.064.175 2.947.521.883.347 1.626.821 2.223 1.418l-.76 1.233zm7.377-.584a8.518 8.518 0 012.293-1.908c.857-.485 1.853-.727 2.989-.727.904 0 1.723.18 2.46.545a5.308 5.308 0 011.892 1.584c.524.693.933 1.551 1.222 2.577.289 1.024.433 2.197.433 3.523 0 1.188-.162 2.293-.482 3.317-.321 1.024-.779 1.91-1.379 2.663a6.461 6.461 0 01-2.176 1.767c-.85.425-1.814.636-2.882.636-.946 0-1.749-.151-2.405-.456a6.22 6.22 0 01-1.79-1.264v6.828H84.9V26.128h2.048c.464 0 .756.216.883.646l.285 1.691zm.175 9.71c.472.61.99 1.037 1.551 1.285.563.248 1.186.37 1.871.37 1.321 0 2.356-.485 3.096-1.449.74-.967 1.113-2.405 1.113-4.321 0-.988-.086-1.832-.253-2.53-.167-.698-.409-1.269-.724-1.71a2.77 2.77 0 00-1.149-.962 3.73 3.73 0 00-1.53-.3c-.863 0-1.605.188-2.231.56-.625.373-1.207.907-1.741 1.603v7.453h-.003zm14.012-9.803c1.816-1.694 3.985-2.538 6.494-2.538.923 0 1.746.151 2.465.448a4.98 4.98 0 011.816 1.269c.487.547.86 1.196 1.118 1.949.255.751.386 1.584.386 2.499v10.216h-1.511c-.326 0-.573-.05-.74-.149-.169-.102-.313-.302-.427-.607l-.331-1.308c-.409.367-.816.696-1.214.985-.399.289-.81.534-1.238.732s-.883.349-1.371.448a8.174 8.174 0 01-1.616.149 5.962 5.962 0 01-1.822-.268c-.56-.18-1.048-.448-1.457-.81s-.732-.81-.969-1.347c-.237-.537-.354-1.167-.354-1.892 0-.618.164-1.225.498-1.814.331-.586.878-1.115 1.639-1.584.764-.466 1.764-.852 3.013-1.157 1.246-.305 2.783-.48 4.61-.521v-1.074c0-1.157-.248-2.02-.74-2.585-.495-.568-1.22-.852-2.176-.852-.652 0-1.196.083-1.639.245a7.312 7.312 0 00-1.149.526c-.326.19-.615.367-.865.529a1.47 1.47 0 01-.805.242.974.974 0 01-.592-.18 1.55 1.55 0 01-.404-.448l-.619-1.103zm8.986 6.809c-1.209.044-2.228.141-3.059.292-.829.154-1.501.349-2.017.584-.516.237-.883.519-1.113.844a1.835 1.835 0 00-.339 1.074c0 .378.06.701.18.969s.289.487.503.662c.216.172.466.297.758.378.289.078.605.117.954.117.883 0 1.642-.164 2.278-.495.636-.334 1.251-.813 1.853-1.444v-2.981h.002zm18.589-7.63c0 .242-.042.48-.12.711a1.57 1.57 0 01-.339.581l-8.149 10.734h8.339v2.632h-12.267v-1.418c0-.159.036-.347.109-.568a2.26 2.26 0 01.334-.631L126 28.765h-8.183v-2.632h12.061v1.418zm7.137-6.276c0 .308-.06.597-.18.868a2.3 2.3 0 01-.495.717 2.471 2.471 0 01-.732.487c-.279.122-.576.18-.891.18-.305 0-.592-.06-.86-.18a2.3 2.3 0 01-.701-.487 2.462 2.462 0 01-.482-.717c-.12-.274-.18-.56-.18-.868 0-.313.063-.607.18-.883.122-.274.281-.511.482-.717.201-.203.433-.367.701-.487a2.05 2.05 0 01.86-.18c.315 0 .612.06.891.18.276.122.524.284.732.487.208.206.375.446.495.717.12.276.18.571.18.883zm-.565 4.858v16.079h-3.39V26.133h3.39z" fill="#008C41"/><path fill="#0E8639" d="M94.376-49.189h11.675v22.164c0 4.316.297 7.318.889 9.009.592 1.663 1.538 2.96 2.833 3.891 1.324.93 2.945 1.397 4.863 1.397 1.918 0 3.539-.451 4.863-1.353 1.353-.93 2.356-2.285 3.002-4.06.48-1.324.719-4.159.722-8.503v-22.545h11.589v19.498c0 8.037-.636 13.536-1.902 16.496-1.551 3.609-3.836 6.387-6.851 8.334-3.018 1.915-6.854 2.872-11.506 2.874-5.048 0-9.137-1.128-12.267-3.385-3.104-2.254-5.288-5.4-6.557-9.434-.904-2.791-1.355-7.868-1.355-15.227V-49.19h.002zm-193.184.459h12.358l12.074 31.694h.188l12.167-31.694h11.602L-69.566-3.453h-9.491L-98.808-48.73zm316.448-1.571c13.676 0 24.619 9.528 24.619 23.769 0 14.244-10.943 23.772-24.619 23.772-13.679 0-24.619-9.528-24.619-23.772 0-14.242 10.943-23.769 24.619-23.769zm0 37.352c8.3 0 13.301-6.51 13.301-13.583s-5.001-13.583-13.301-13.583-13.301 6.51-13.301 13.583c.003 7.075 5.001 13.583 13.301 13.583zM88.124-49.05l-5.402 9.694h-7.526v15.964c0 4.021.482 7.213 1.449 9.577.964 2.361 3 4.31 5.929 5.679l-7.378 6.499c-7.847-2.828-11.769-9.116-11.769-18.857v-18.86h-6.802v-9.694h6.802v-9.264l11.769-7.62v16.887h12.928v-.005zm97.074 45.209H173.57v-26.284c0-3.461-.975-9.627-6.937-9.95-3.156-.172-6.484 1.407-8.467 3.708-2.119 2.457-2.658 5.731-2.658 9.788v22.67h-11.511v-42.53l12.068-3.852v6.89c1.444-2.249 3.445-4 6.004-5.249a18.248 18.248 0 018.12-1.879c10.005 0 15.011 5.843 15.011 17.531v29.156h-.002zm-134.431 0H39.139v-26.284c0-3.461-.975-9.627-6.937-9.95-3.156-.172-6.484 1.407-8.467 3.708-2.119 2.457-2.658 5.731-2.658 9.788v22.67H9.566v-42.53l12.068-3.852v6.89c1.444-2.249 3.445-4 6.004-5.249a18.248 18.248 0 018.12-1.879c10.004 0 15.011 5.843 15.011 17.531v29.156h-.002zm-165.115-11.834c-2.885 3.19-7.054 5.03-11.162 4.725-7.028-.524-11.521-5.499-12.96-10.812h37.071s1.611-9.843-3.38-17.823c-4.321-6.911-11.805-11.62-19.701-11.678-13.895-.104-24.452 11.274-24.452 25.419 0 14.677 11.182 24.955 24.572 24.955 6.181 0 11.607-2.486 16.348-7.659a28.121 28.121 0 002.908-3.552c-2.505-.98-6.982-2.721-9.244-3.575zm-10.585-25.529c6.924 0 11.711 4.547 13.726 10.692h-27.165c1.824-6.144 6.882-10.692 13.439-10.692zm111.305 24.781c-2.885 3.19-7.054 5.03-11.162 4.725-7.028-.524-11.521-5.499-12.96-10.812H-.679s1.611-9.843-3.38-17.823c-4.321-6.911-11.805-11.62-19.701-11.678-13.893-.104-24.452 11.274-24.452 25.419 0 14.677 11.182 24.955 24.572 24.955 6.181 0 11.607-2.486 16.348-7.659a28.121 28.121 0 002.908-3.552c-2.507-.98-6.982-2.718-9.244-3.575zm-10.588-25.529c6.924 0 11.711 4.547 13.726 10.692h-27.162c1.821-6.144 6.879-10.692 13.436-10.692z"/></svg>